<svg
                width="50"
                height="50"
                viewBox="0 0 50 50"
                fill="none"
                xmlns="http://www.w3.org/2000/svg"
              >
                <path
                  d="M39.5833 31.25C34.9792 31.25 31.25 34.9792 31.25 39.5833C31.25 41.1458 31.6875 42.625 32.4584 43.875C33.8959 46.2917 36.5417 47.9167 39.5833 47.9167C42.625 47.9167 45.2708 46.2917 46.7083 43.875C47.4791 42.625 47.9167 41.1458 47.9167 39.5833C47.9167 34.9792 44.1875 31.25 39.5833 31.25ZM43.8958 38.6875L39.4583 42.7917C39.1667 43.0625 38.7708 43.2083 38.3958 43.2083C38 43.2083 37.6042 43.0625 37.2917 42.75L35.2291 40.6875C34.6249 40.0833 34.6249 39.0833 35.2291 38.4792C35.8333 37.875 36.8333 37.875 37.4374 38.4792L38.4375 39.4792L41.7708 36.3958C42.3958 35.8125 43.3958 35.8542 43.9791 36.4792C44.5625 37.1042 44.5208 38.0833 43.8958 38.6875Z"
                  class="fill-current"
                />
                <path
                  d="M45.8333 15.7083V18.75H4.16663V15.7083C4.16663 10.9375 8.04168 7.08334 12.8125 7.08334H37.1874C41.9582 7.08334 45.8333 10.9375 45.8333 15.7083Z"
                  class="fill-current"
                />
                <path
                  opacity="0.4"
                  d="M4.16663 18.75V34.2917C4.16663 39.0625 8.02082 42.9167 12.7917 42.9167H25.8333C27.0417 42.9167 28.0833 41.8958 27.9791 40.6875C27.6874 37.5 28.7083 34.0417 31.5417 31.2917C32.7083 30.1458 34.1458 29.2708 35.7083 28.7708C38.3125 27.9375 40.8333 28.0417 43.0624 28.7917C44.4166 29.25 45.8333 28.2708 45.8333 26.8333V18.75H4.16663ZM16.6666 35.9375H12.5C11.6458 35.9375 10.9375 35.2292 10.9375 34.375C10.9375 33.5208 11.6458 32.8125 12.5 32.8125H16.6666C17.5208 32.8125 18.2291 33.5208 18.2291 34.375C18.2291 35.2292 17.5208 35.9375 16.6666 35.9375Z"
                  class="fill-current"
                />
                <path
                  d="M18.2292 34.375C18.2292 35.2292 17.5208 35.9375 16.6667 35.9375H12.5C11.6458 35.9375 10.9375 35.2292 10.9375 34.375C10.9375 33.5208 11.6458 32.8125 12.5 32.8125H16.6667C17.5208 32.8125 18.2292 33.5208 18.2292 34.375Z"
                  class="fill-current"
                />
              </svg>