<svg
                  class="text-color1"
                  width="21"
                  height="21"
                  viewBox="0 0 21 21"
                  fill="none"
                  xmlns="http://www.w3.org/2000/svg"
                >
                  <path
                    opacity="0.4"
                    d="M13.0083 12.7916V18.825L3.00834 18.8417V12.7916L3 11.5416V6.39165C3 5.83332 3.28335 5.31662 3.74168 5.00829L7.07501 2.7833C7.63335 2.4083 8.36665 2.4083 8.92499 2.7833L12.2583 5.00829C12.725 5.31662 13 5.83332 13 6.39165V11.5416L13.0083 12.7916Z"
                    class="fill-current"
                  />
                  <path
                    d="M18.8333 18.2083H17.7749V15.7083C18.5666 15.45 19.1416 14.7083 19.1416 13.8333V12.1667C19.1416 11.075 18.25 10.1833 17.1583 10.1833C16.0666 10.1833 15.1749 11.075 15.1749 12.1667V13.8333C15.1749 14.7 15.7416 15.4333 16.5166 15.7V18.2083H2.16663C1.82496 18.2083 1.54163 18.4917 1.54163 18.8333C1.54163 19.175 1.82496 19.4583 2.16663 19.4583H17.1083C17.125 19.4583 17.1333 19.4667 17.1499 19.4667C17.1666 19.4667 17.175 19.4583 17.1917 19.4583H18.8333C19.175 19.4583 19.4583 19.175 19.4583 18.8333C19.4583 18.4917 19.175 18.2083 18.8333 18.2083Z"
                    class="fill-current"
                  />
                  <path
                    d="M13.0083 12.7917H3.00834L3 11.5417H13L13.0083 12.7917Z"
                    class="fill-current"
                  />
                  <path
                    d="M8 19.4583C7.65833 19.4583 7.375 19.175 7.375 18.8333V15.7083C7.375 15.3667 7.65833 15.0833 8 15.0833C8.34167 15.0833 8.625 15.3667 8.625 15.7083V18.8333C8.625 19.175 8.34167 19.4583 8 19.4583Z"
                    class="fill-current"
                  />
                  <path
                    d="M7.99996 9.45833C8.80537 9.45833 9.45829 8.80541 9.45829 8C9.45829 7.19458 8.80537 6.54167 7.99996 6.54167C7.19454 6.54167 6.54163 7.19458 6.54163 8C6.54163 8.80541 7.19454 9.45833 7.99996 9.45833Z"
                    class="fill-current"
                  />
                </svg>