<svg
                  class="text-color1"
                  width="21"
                  height="21"
                  viewBox="0 0 21 21"
                  fill="none"
                  xmlns="http://www.w3.org/2000/svg"
                >
                  <path
                    opacity="0.4"
                    d="M17.6834 7.54167C16.8084 3.69167 13.45 1.95833 10.5 1.95833C10.5 1.95833 10.5 1.95833 10.4917 1.95833C7.55002 1.95833 4.18335 3.68333 3.30835 7.53333C2.33335 11.8333 4.96669 15.475 7.35002 17.7667C8.23335 18.6167 9.36668 19.0417 10.5 19.0417C11.6334 19.0417 12.7667 18.6167 13.6417 17.7667C16.025 15.475 18.6584 11.8417 17.6834 7.54167Z"
                    class="fill-current"
                  />
                  <path
                    d="M10.5 11.7167C11.9497 11.7167 13.125 10.5414 13.125 9.09167C13.125 7.64192 11.9497 6.46667 10.5 6.46667C9.05025 6.46667 7.875 7.64192 7.875 9.09167C7.875 10.5414 9.05025 11.7167 10.5 11.7167Z"
                    class="fill-current"
                  />
                </svg>