<svg
                width="19"
                height="19"
                viewBox="0 0 19 19"
                fill="none"
                xmlns="http://www.w3.org/2000/svg"
              >
                <path
                  opacity="0.4"
                  d="M13.0775 14.735H5.9225C5.6075 14.735 5.3225 14.5325 5.2175 14.24L2.0975 5.5025C1.85 4.805 2.645 4.2125 3.2375 4.64L6.2375 6.785C6.635 7.07 7.205 6.8975 7.3775 6.44L8.795 2.66C9.035 2.0075 9.9575 2.0075 10.1975 2.66L11.615 6.44C11.7875 6.905 12.35 7.07 12.755 6.785L15.755 4.64C16.355 4.2125 17.1425 4.8125 16.895 5.5025L13.775 14.24C13.6775 14.5325 13.3925 14.735 13.0775 14.735Z"
                  class="fill-current"
                />
                <path
                  d="M13.25 17H5.75C5.4425 17 5.1875 16.745 5.1875 16.4375C5.1875 16.13 5.4425 15.875 5.75 15.875H13.25C13.5575 15.875 13.8125 16.13 13.8125 16.4375C13.8125 16.745 13.5575 17 13.25 17Z"
                  class="fill-current"
                />
                <path
                  d="M11.375 11.5625H7.625C7.3175 11.5625 7.0625 11.3075 7.0625 11C7.0625 10.6925 7.3175 10.4375 7.625 10.4375H11.375C11.6825 10.4375 11.9375 10.6925 11.9375 11C11.9375 11.3075 11.6825 11.5625 11.375 11.5625Z"
                  class="fill-current"
                />
              </svg>