<svg
                width="50"
                height="50"
                viewBox="0 0 50 50"
                fill="none"
                xmlns="http://www.w3.org/2000/svg"
              >
                <path
                  opacity="0.4"
                  d="M22.3959 5.10419C23.8334 3.87502 26.1875 3.87502 27.6458 5.10419L30.9376 7.93749C31.5626 8.47916 32.7292 8.91672 33.5625 8.91672H37.1042C39.3125 8.91672 41.125 10.7292 41.125 12.9375V16.4791C41.125 17.2916 41.5625 18.4791 42.1042 19.1041L44.9376 22.3958C46.1667 23.8333 46.1667 26.1875 44.9376 27.6459L42.1042 30.9374C41.5625 31.5624 41.125 32.7291 41.125 33.5625V37.1042C41.125 39.3125 39.3125 41.125 37.1042 41.125H33.5625C32.75 41.125 31.5626 41.5625 30.9376 42.1042L27.6458 44.9375C26.2083 46.1667 23.8542 46.1667 22.3959 44.9375L19.1042 42.1042C18.4792 41.5625 17.3125 41.125 16.4792 41.125H12.875C10.6667 41.125 8.8542 39.3125 8.8542 37.1042V33.5416C8.8542 32.7291 8.41672 31.5624 7.89589 30.9374L5.08337 27.625C3.87504 26.1875 3.87504 23.8542 5.08337 22.4167L7.89589 19.1041C8.41672 18.4791 8.8542 17.3125 8.8542 16.5V12.9375C8.8542 10.7292 10.6667 8.91672 12.875 8.91672H16.4792C17.2917 8.91672 18.4792 8.47916 19.1042 7.93749L22.3959 5.10419Z"
                  class="fill-current"
                />
                <path
                  d="M34.5416 23.0625C34.1458 22.5 33.4792 22.1875 32.6875 22.1875H28.625C28.3541 22.1875 28.1042 22.0833 27.9375 21.875C27.7708 21.6666 27.6875 21.3958 27.7291 21.1041L28.2291 17.8541C28.4375 16.8958 27.7917 15.7916 26.8333 15.4791C25.9375 15.1458 24.875 15.6041 24.4583 16.2291L20.4166 22.2291V21.4791C20.4166 20.0208 19.7917 19.4166 18.25 19.4166H17.2291C15.6875 19.4166 15.0625 20.0208 15.0625 21.4791V31.4375C15.0625 32.8958 15.6875 33.5 17.2291 33.5H18.25C19.7083 33.5 20.3333 32.9374 20.3958 31.6041L23.4583 33.9583C23.875 34.3749 24.8125 34.6041 25.4792 34.6041H29.3333C30.6666 34.6041 32 33.6041 32.2916 32.3749L34.7292 24.9582C35 24.2916 34.9375 23.6041 34.5416 23.0625Z"
                  class="fill-current"
                />
              </svg>